<?xml version="1.0" encoding="UTF-8" standalone="no"?>
<!DOCTYPE svg PUBLIC "-//W3C//DTD SVG 1.1//EN" "http://www.w3.org/Graphics/SVG/1.1/DTD/svg11.dtd">
<svg width="100%" height="100%" viewBox="0 0 800 800" version="1.1" xmlns="http://www.w3.org/2000/svg" xmlns:xlink="http://www.w3.org/1999/xlink" xml:space="preserve" xmlns:serif="http://www.serif.com/" style="fill-rule:evenodd;clip-rule:evenodd;stroke-linejoin:round;stroke-miterlimit:2;">
    <g transform="matrix(-1,0,0,1,800,0)">
        <path d="M733.333,400C733.333,584.093 584.093,733.333 400,733.333C346.677,733.333 296.279,720.813 251.584,698.55C239.707,692.637 226.131,690.667 213.313,694.097L139.112,713.95C106.9,722.567 77.432,693.1 86.05,660.89L105.904,586.687C109.334,573.87 107.365,560.293 101.449,548.417C79.187,503.72 66.667,453.323 66.667,400C66.667,215.905 215.905,66.667 400,66.667C584.093,66.667 733.333,215.905 733.333,400ZM250,370.28C250,415.893 293.961,463.753 334.287,498.057C361.747,521.42 375.48,533.103 400,533.103C424.52,533.103 438.253,521.42 465.713,498.057C506.04,463.753 550,415.893 550,370.28C550,281.041 467.497,247.724 400,316.66C332.502,247.724 250,281.041 250,370.28Z" style="fill:rgb(34,40,49);"/>
    </g>
</svg>
