<?xml version="1.0" encoding="UTF-8" standalone="no"?>
<!DOCTYPE svg PUBLIC "-//W3C//DTD SVG 1.1//EN" "http://www.w3.org/Graphics/SVG/1.1/DTD/svg11.dtd">
<svg width="100%" height="100%" viewBox="0 0 473 473" version="1.1" xmlns="http://www.w3.org/2000/svg" xmlns:xlink="http://www.w3.org/1999/xlink" xml:space="preserve" xmlns:serif="http://www.serif.com/" style="fill-rule:evenodd;clip-rule:evenodd;stroke-linejoin:round;stroke-miterlimit:2;">
    <g transform="matrix(1,0,0,1,-944.882,-236.22)">
        <g transform="matrix(1,0,0,1,236.22,-472.441)">
            <rect x="708.661" y="708.661" width="472.441" height="472.441" style="fill:none;"/>
            <g transform="matrix(1,0,0,1,-475.329,-472.441)">
                <g transform="matrix(0.965926,-0.258819,0.258819,0.965926,-318.634,415.599)">
                    <path d="M1253.05,1584.32C1210.58,1541.57 1184.3,1482.51 1184.3,1417.32C1184.3,1286.95 1289.43,1181.1 1418.92,1181.1C1483.66,1181.1 1542.32,1207.56 1584.79,1250.32L1253.05,1584.32Z" style="fill:rgb(235,235,235);"/>
                    <clipPath id="_clip1">
                        <path d="M1253.05,1584.32C1210.58,1541.57 1184.3,1482.51 1184.3,1417.32C1184.3,1286.95 1289.43,1181.1 1418.92,1181.1C1483.66,1181.1 1542.32,1207.56 1584.79,1250.32L1253.05,1584.32Z"/>
                    </clipPath>
                    <g clip-path="url(#_clip1)">
                        <g id="flag-us-svgrepo-com.svg" transform="matrix(0.855643,0.229269,-0.229269,0.855643,1417.13,1418.43)">
                            <g transform="matrix(1,0,0,1,-400,-400)">
                                <g>
                                    <clipPath id="_clip2">
                                        <path d="M800,171.429L800,628.571C800,660.109 774.395,685.714 742.857,685.714L57.143,685.714C25.605,685.714 0,660.109 0,628.571L0,171.429C0,139.891 25.605,114.286 57.143,114.286L742.857,114.286C774.395,114.286 800,139.891 800,171.429Z"/>
                                    </clipPath>
                                    <g clip-path="url(#_clip2)">
                                        <path d="M800,171.429L800,628.571C800,660.109 774.395,685.714 742.857,685.714L57.143,685.714C25.605,685.714 0,660.109 0,628.571L0,171.429C0,139.891 25.605,114.286 57.143,114.286L742.857,114.286C774.395,114.286 800,139.891 800,171.429Z" style="fill:white;"/>
                                        <g>
                                            <path d="M800,114.286L0,114.286L0,152.381L800,152.381L800,114.286ZM800,190.476L0,190.476L0,228.571L800,228.571L800,190.476ZM0,266.667L800,266.667L800,304.762L0,304.762L0,266.667ZM800,342.857L0,342.857L0,380.952L800,380.952L800,342.857ZM0,419.049L800,419.049L800,457.143L0,457.143L0,419.049ZM800,495.237L0,495.237L0,533.334L800,533.334L800,495.237ZM0,571.429L800,571.429L800,609.523L0,609.523L0,571.429ZM800,647.62L0,647.62L0,685.714L800,685.714L800,647.62Z" style="fill:rgb(208,47,68);"/>
                                            <rect x="0" y="114.286" width="342.857" height="266.667" style="fill:rgb(70,70,127);"/>
                                            <g>
                                                <path d="M76.19,171.428C76.19,181.948 67.662,190.476 57.142,190.476C46.623,190.476 38.095,181.948 38.095,171.428C38.095,160.909 46.623,152.381 57.142,152.381C67.662,152.381 76.19,160.909 76.19,171.428ZM152.38,171.428C152.38,181.948 143.853,190.476 133.333,190.476C122.813,190.476 114.285,181.948 114.285,171.428C114.285,160.909 122.813,152.381 133.333,152.381C143.853,152.381 152.38,160.909 152.38,171.428ZM209.523,190.476C220.043,190.476 228.571,181.948 228.571,171.428C228.571,160.909 220.043,152.381 209.523,152.381C199.003,152.381 190.476,160.909 190.476,171.428C190.476,181.948 199.003,190.476 209.523,190.476ZM304.76,171.428C304.76,181.948 296.234,190.476 285.714,190.476C275.194,190.476 266.666,181.948 266.666,171.428C266.666,160.909 275.194,152.381 285.714,152.381C296.234,152.381 304.76,160.909 304.76,171.428ZM95.237,228.571C105.757,228.571 114.285,220.043 114.285,209.524C114.285,199.004 105.757,190.476 95.237,190.476C84.718,190.476 76.19,199.004 76.19,209.524C76.19,220.043 84.718,228.571 95.237,228.571ZM190.476,209.524C190.476,220.043 181.948,228.571 171.428,228.571C160.908,228.571 152.38,220.043 152.38,209.524C152.38,199.004 160.908,190.476 171.428,190.476C181.948,190.476 190.476,199.004 190.476,209.524ZM247.619,228.571C258.138,228.571 266.666,220.043 266.666,209.524C266.666,199.004 258.138,190.476 247.619,190.476C237.099,190.476 228.571,199.004 228.571,209.524C228.571,220.043 237.099,228.571 247.619,228.571ZM304.76,247.619C304.76,258.139 296.234,266.667 285.714,266.667C275.194,266.667 266.666,258.139 266.666,247.619C266.666,237.099 275.194,228.571 285.714,228.571C296.234,228.571 304.76,237.099 304.76,247.619ZM209.523,266.667C220.043,266.667 228.571,258.139 228.571,247.619C228.571,237.099 220.043,228.571 209.523,228.571C199.003,228.571 190.476,237.099 190.476,247.619C190.476,258.139 199.003,266.667 209.523,266.667ZM152.38,247.619C152.38,258.139 143.853,266.667 133.333,266.667C122.813,266.667 114.285,258.139 114.285,247.619C114.285,237.099 122.813,228.571 133.333,228.571C143.853,228.571 152.38,237.099 152.38,247.619ZM57.142,266.667C67.662,266.667 76.19,258.139 76.19,247.619C76.19,237.099 67.662,228.571 57.142,228.571C46.623,228.571 38.095,237.099 38.095,247.619C38.095,258.139 46.623,266.667 57.142,266.667ZM114.285,285.714C114.285,296.234 105.757,304.762 95.237,304.762C84.718,304.762 76.19,296.234 76.19,285.714C76.19,275.194 84.718,266.667 95.237,266.667C105.757,266.667 114.285,275.194 114.285,285.714ZM171.428,304.762C181.948,304.762 190.476,296.234 190.476,285.714C190.476,275.194 181.948,266.667 171.428,266.667C160.908,266.667 152.38,275.194 152.38,285.714C152.38,296.234 160.908,304.762 171.428,304.762ZM266.666,285.714C266.666,296.234 258.138,304.762 247.619,304.762C237.099,304.762 228.571,296.234 228.571,285.714C228.571,275.194 237.099,266.667 247.619,266.667C258.138,266.667 266.666,275.194 266.666,285.714ZM285.714,342.857C296.234,342.857 304.76,334.329 304.76,323.809C304.76,313.29 296.234,304.762 285.714,304.762C275.194,304.762 266.666,313.29 266.666,323.809C266.666,334.329 275.194,342.857 285.714,342.857ZM228.571,323.809C228.571,334.329 220.043,342.857 209.523,342.857C199.003,342.857 190.476,334.329 190.476,323.809C190.476,313.29 199.003,304.762 209.523,304.762C220.043,304.762 228.571,313.29 228.571,323.809ZM133.333,342.857C143.853,342.857 152.38,334.329 152.38,323.809C152.38,313.29 143.853,304.762 133.333,304.762C122.813,304.762 114.285,313.29 114.285,323.809C114.285,334.329 122.813,342.857 133.333,342.857ZM76.19,323.809C76.19,334.329 67.662,342.857 57.142,342.857C46.623,342.857 38.095,334.329 38.095,323.809C38.095,313.29 46.623,304.762 57.142,304.762C67.662,304.762 76.19,313.29 76.19,323.809Z" style="fill:url(#_Linear3);"/>
                                            </g>
                                        </g>
                                    </g>
                                </g>
                            </g>
                        </g>
                    </g>
                </g>
                <g transform="matrix(-0.965926,0.258819,-0.258819,-0.965926,3157.78,2419.17)">
                    <path d="M1253.05,1584.32C1210.58,1541.57 1184.3,1482.51 1184.3,1417.32C1184.3,1286.95 1289.43,1181.1 1418.92,1181.1C1483.66,1181.1 1542.32,1207.56 1584.79,1250.32L1253.05,1584.32Z" style="fill:rgb(235,235,235);"/>
                    <clipPath id="_clip4">
                        <path d="M1253.05,1584.32C1210.58,1541.57 1184.3,1482.51 1184.3,1417.32C1184.3,1286.95 1289.43,1181.1 1418.92,1181.1C1483.66,1181.1 1542.32,1207.56 1584.79,1250.32L1253.05,1584.32Z"/>
                    </clipPath>
                    <g clip-path="url(#_clip4)">
                        <g id="united-kingdom-uk-svgrepo-com.svg" transform="matrix(-0.859497,-0.230302,0.230302,-0.859497,1424.76,1396.15)">
                            <g transform="matrix(1,0,0,1,-400,-400)">
                                <path d="M740.086,137.931L59.914,137.931C26.823,137.931 0,164.755 0,197.845L0,602.156C0,635.245 26.823,662.07 59.914,662.07L740.086,662.07C773.175,662.07 800,635.247 800,602.156L800,197.845C800,164.755 773.177,137.931 740.086,137.931Z" style="fill:rgb(65,71,155);fill-rule:nonzero;"/>
                                <path d="M799.17,187.941C794.448,159.567 769.8,137.93 740.086,137.93L724.497,137.93L468.966,305.347L468.966,137.931L331.034,137.931L331.034,305.348L75.503,137.931L59.914,137.931C30.2,137.931 5.552,159.567 0.83,187.942L219.233,331.036L0,331.036L0,468.967L219.233,468.967L0.83,612.058C5.552,640.431 30.2,662.069 59.914,662.069L75.503,662.069L331.034,494.652L331.034,662.069L468.966,662.069L468.966,494.652L724.497,662.069L740.086,662.069C769.8,662.069 794.448,640.433 799.17,612.058L580.767,468.964L800,468.964L800,331.033L580.767,331.033L799.17,187.941Z" style="fill:rgb(245,245,245);fill-rule:nonzero;"/>
                                <g>
                                    <path d="M441.38,137.931L358.62,137.931L358.62,358.62L0,358.62L0,441.38L358.62,441.38L358.62,662.069L441.38,662.069L441.38,441.38L800,441.38L800,358.62L441.38,358.62L441.38,137.931Z" style="fill:rgb(255,75,85);fill-rule:nonzero;"/>
                                    <path d="M38.739,658.206L330.275,468.966L279.606,468.966L14.413,641.109C20.902,648.683 29.241,654.617 38.739,658.206Z" style="fill:rgb(255,75,85);fill-rule:nonzero;"/>
                                    <path d="M541.231,468.966L490.562,468.966L772.931,652.255C780.833,647.066 787.427,640.056 792.13,631.825L541.231,468.966Z" style="fill:rgb(255,75,85);fill-rule:nonzero;"/>
                                    <path d="M6.327,171.055L252.78,331.034L303.448,331.034L24.18,149.753C16.681,155.334 10.545,162.631 6.327,171.055Z" style="fill:rgb(255,75,85);fill-rule:nonzero;"/>
                                    <path d="M519.634,331.034L785.314,158.573C778.753,151.025 770.348,145.125 760.784,141.605L468.966,331.034L519.634,331.034Z" style="fill:rgb(255,75,85);fill-rule:nonzero;"/>
                                </g>
                            </g>
                        </g>
                    </g>
                </g>
            </g>
        </g>
    </g>
    <defs>
        <linearGradient id="_Linear3" x1="0" y1="0" x2="1" y2="0" gradientUnits="userSpaceOnUse" gradientTransform="matrix(1.16633e-14,190.476,-190.476,1.16633e-14,38.0946,152.381)"><stop offset="0" style="stop-color:white;stop-opacity:1"/><stop offset="1" style="stop-color:rgb(240,240,240);stop-opacity:1"/></linearGradient>
    </defs>
</svg>
