<?xml version="1.0" encoding="UTF-8" standalone="no"?>
<!DOCTYPE svg PUBLIC "-//W3C//DTD SVG 1.1//EN" "http://www.w3.org/Graphics/SVG/1.1/DTD/svg11.dtd">
<svg width="100%" height="100%" viewBox="0 0 667 501" version="1.1" xmlns="http://www.w3.org/2000/svg" xmlns:xlink="http://www.w3.org/1999/xlink" xml:space="preserve" xmlns:serif="http://www.serif.com/" style="fill-rule:evenodd;clip-rule:evenodd;stroke-linejoin:round;stroke-miterlimit:2;">
    <g transform="matrix(1,0,0,1,-66.6667,-166.665)">
        <path d="M732.867,324.667C732.791,323.688 732.702,322.71 732.6,321.733C726.502,235.027 653.587,166.887 566.667,166.667L233.333,166.667C145.098,166.268 71.236,236.428 67.1,324.567C66.767,327.2 66.667,329.933 66.667,333L66.667,550C66.667,580.833 79.1,610.933 100.733,632.533C122.685,654.342 152.39,666.617 183.333,666.667C243.333,666.667 266.8,633.333 300,566.667C304.867,556.933 333.067,500 400,500C466.533,500 495.1,556.9 500,566.667C533.467,633.333 556.667,666.667 616.667,666.667C647.5,666.667 677.6,654.233 699.2,632.6C721.009,610.648 733.284,580.944 733.333,550L733.333,333.333C733.333,330.167 733.2,327.333 732.867,324.667ZM233.333,401.033C232.831,401.045 232.329,401.05 231.826,401.05C195.254,401.05 165.159,370.956 165.159,334.384C165.159,297.811 195.254,267.717 231.826,267.717C232.317,267.717 232.809,267.722 233.3,267.733C269.307,268.53 298.493,298.368 298.493,334.384C298.493,370.387 269.327,400.219 233.333,401.033ZM566.667,234.367C584.953,234.367 600,249.414 600,267.7C600,285.986 584.953,301.033 566.667,301.033C548.381,301.033 533.333,285.986 533.333,267.7C533.333,249.414 548.381,234.367 566.667,234.367ZM500,367.7C481.714,367.7 466.667,352.653 466.667,334.367C466.667,316.081 481.714,301.033 500,301.033C518.286,301.033 533.333,316.081 533.333,334.367C533.333,352.653 518.286,367.7 500,367.7ZM566.667,434.367C548.381,434.367 533.333,419.319 533.333,401.033C533.333,382.747 548.381,367.7 566.667,367.7C584.953,367.7 600,382.747 600,401.033C600,419.319 584.953,434.367 566.667,434.367ZM633.333,367.7C615.047,367.7 600,352.653 600,334.367C600,316.081 615.047,301.033 633.333,301.033C651.619,301.033 666.667,316.081 666.667,334.367C666.667,352.653 651.619,367.7 633.333,367.7Z" style="fill:rgb(34,40,49);fill-rule:nonzero;"/>
    </g>
</svg>
