<?xml version="1.0" encoding="UTF-8" standalone="no"?>
<!DOCTYPE svg PUBLIC "-//W3C//DTD SVG 1.1//EN" "http://www.w3.org/Graphics/SVG/1.1/DTD/svg11.dtd">
<svg width="100%" height="100%" viewBox="0 0 667 667" version="1.1" xmlns="http://www.w3.org/2000/svg" xmlns:xlink="http://www.w3.org/1999/xlink" xml:space="preserve" xmlns:serif="http://www.serif.com/" style="fill-rule:evenodd;clip-rule:evenodd;stroke-linejoin:round;stroke-miterlimit:2;">
    <g transform="matrix(1,0,0,1,-66.6667,-66.6667)">
        <g id="页面-1">
            <g id="world_2_fill">
                <path id="形状" d="M400,66.667C584.093,66.667 733.333,215.905 733.333,400C733.333,584.093 584.093,733.333 400,733.333C215.905,733.333 66.667,584.093 66.667,400C66.667,215.905 215.905,66.667 400,66.667ZM466.677,446.657L414.537,488.367C406.78,494.57 406.14,506.14 413.163,513.167L454.45,554.45C462.46,562.46 468.297,572.383 471.41,583.277L477.243,603.697C482.5,622.087 495.403,635.603 511.137,642.473C543.207,627.75 571.853,606.853 595.553,581.3L587.757,518.737C584.993,496.617 571.357,477.343 551.42,467.377L502.407,442.87C490.777,437.057 476.83,438.533 466.677,446.657ZM400.006,133.337C314.06,133.337 237.61,173.997 188.843,237.13L183.34,244.513L183.34,300.679C183.34,342.547 209.381,379.739 248.176,394.295L254.089,396.307L297.109,409.463C342.875,423.464 387.438,386.22 383.005,339.607L382.37,334.753L376.547,299.811C373.854,283.654 383.281,268.148 398.408,262.868L401.997,261.835L422.39,257.174C456.51,249.375 482.877,222.278 489.743,187.958C492.44,174.473 491.927,161.02 488.69,148.438C460.947,138.657 431.097,133.337 400.006,133.337Z" style="fill:rgb(34,40,49);fill-rule:nonzero;"/>
            </g>
        </g>
    </g>
</svg>
