<?xml version="1.0" encoding="UTF-8" standalone="no"?>
<!DOCTYPE svg PUBLIC "-//W3C//DTD SVG 1.1//EN" "http://www.w3.org/Graphics/SVG/1.1/DTD/svg11.dtd">
<svg width="100%" height="100%" viewBox="0 0 800 800" version="1.1" xmlns="http://www.w3.org/2000/svg" xmlns:xlink="http://www.w3.org/1999/xlink" xml:space="preserve" xmlns:serif="http://www.serif.com/" style="fill-rule:evenodd;clip-rule:evenodd;stroke-linejoin:round;stroke-miterlimit:2;">
    <path d="M198.934,133.333L601.067,133.333C615.687,133.333 628.303,133.333 638.747,134.045C649.74,134.795 660.737,136.445 671.603,140.945C696.103,151.095 715.573,170.562 725.72,195.065C730.22,205.929 731.87,216.926 732.623,227.921C733.333,238.363 733.333,250.979 733.333,265.6L733.333,534.4C733.333,549.02 733.333,561.637 732.623,572.08C731.87,583.073 730.22,594.07 725.72,604.937C715.573,629.437 696.103,648.907 671.603,659.053C660.737,663.553 649.74,665.203 638.747,665.957C628.303,666.667 615.687,666.667 601.067,666.667L198.934,666.667C184.312,666.667 171.696,666.667 161.254,665.957C150.26,665.203 139.263,663.553 128.398,659.053C103.896,648.907 84.428,629.437 74.279,604.937C69.779,594.07 68.129,583.073 67.378,572.08C66.666,561.637 66.666,549.02 66.667,534.4L66.667,265.601C66.666,250.979 66.666,238.363 67.378,227.921C68.129,216.926 69.779,205.929 74.279,195.065C84.428,170.562 103.896,151.095 128.398,140.945C139.263,136.445 150.26,134.795 161.254,134.045C171.696,133.333 184.312,133.333 198.934,133.333ZM143.915,209.259C156.038,195.405 177.097,194.001 190.951,206.123L378.05,369.833C390.617,380.83 409.383,380.83 421.95,369.833L609.05,206.123C622.903,194.001 643.963,195.405 656.083,209.259C668.207,223.114 666.803,244.172 652.95,256.295L465.85,420.007C428.147,452.997 371.853,452.997 334.15,420.007L147.051,256.295C133.196,244.172 131.792,223.114 143.915,209.259Z" style="fill:rgb(34,40,49);"/>
</svg>
