<?xml version="1.0" encoding="UTF-8" standalone="no"?>
<!DOCTYPE svg PUBLIC "-//W3C//DTD SVG 1.1//EN" "http://www.w3.org/Graphics/SVG/1.1/DTD/svg11.dtd">
<svg width="100%" height="100%" viewBox="0 0 800 800" version="1.1" xmlns="http://www.w3.org/2000/svg" xmlns:xlink="http://www.w3.org/1999/xlink" xml:space="preserve" xmlns:serif="http://www.serif.com/" style="fill-rule:evenodd;clip-rule:evenodd;stroke-linejoin:round;stroke-miterlimit:2;">
    <path d="M452.5,21.75C423.5,-7.25 376.5,-7.25 347.5,21.75L21.8,347.5C-7.2,376.5 -7.2,423.45 21.8,452.4L347.6,778.2C376.6,807.2 423.55,807.2 452.5,778.2L778.3,452.4C807.3,423.4 807.3,376.45 778.3,347.5L452.5,21.75ZM274.75,301.65C274.696,301.651 274.643,301.651 274.589,301.651C268.089,301.651 262.739,296.302 262.739,289.801C262.739,289.634 262.743,289.467 262.75,289.3C267.5,204.55 336.85,175 400.25,175C470.05,175 533.85,211.5 533.85,287C533.85,341 502.1,366.7 471.65,389.85C434.8,417.8 421.15,428.25 421.15,464.15L421.15,469.4C421.15,476.257 415.507,481.9 408.65,481.9L368.15,481.9C361.368,481.901 355.759,476.382 355.65,469.6L355.45,458.75C353.55,412.4 380.2,383.85 413.85,359.4C443.35,337.2 462.1,322.6 462.1,290.85C462.1,249.6 430.7,232.45 396.4,232.45C356.25,232.45 333.75,256.35 329.3,289.15C328.4,296 322.9,301.65 316,301.65L274.75,301.65ZM391,623.8C361.8,623.8 340.55,604.1 340.55,577.45C340.55,549.85 361.8,530.45 391.05,530.45C421.5,530.45 442.45,549.85 442.45,577.45C442.45,604.1 421.45,623.8 391,623.8Z" style="fill:rgb(34,40,49);fill-rule:nonzero;"/>
</svg>
